<?xml version="1.0" encoding="utf-8"?>
<!-- Generator: Adobe Illustrator 27.0.0, SVG Export Plug-In . SVG Version: 6.00 Build 0)  -->
<svg version="1.1" id="Layer_1" xmlns="http://www.w3.org/2000/svg" xmlns:xlink="http://www.w3.org/1999/xlink" x="0px" y="0px"
	 viewBox="0 0 52 52" style="enable-background:new 0 0 52 52;" xml:space="preserve">
<style type="text/css">
	.st0{fill:#FFFFFF;}
</style>
<path class="st0" d="M41,6H11c-2.8,0-5,2.2-5,5v30c0,2.8,2.2,5,5,5h12.9C36.1,46,46,36.1,46,23.9V11C46,8.2,43.8,6,41,6z M8,41V11
	c0-1.7,1.3-3,3-3h30c1.7,0,3,1.3,3,3v8c0,5.2-2.4,7.7-7.7,7.7h-8.7c-0.6,0-1,0.4-1,1v8.7c0,5.2-2.4,7.7-7.7,7.7h-8
	C9.3,44,8,42.7,8,41z M25.8,43.9c1.9-1.6,2.9-4.2,2.9-7.6v-7.7h7.7c3.4,0,6-1,7.6-2.9C43,35.4,35.4,43,25.8,43.9z"/>
<path class="st0" d="M17,11l1.3,4.1h4.4l-3.5,2.6l1.3,4.1L17,19.3l-3.5,2.6l1.3-4.1l-3.5-2.6h4.4L17,11z"/>
</svg>
