<svg width="52" height="52" fill="currentColor" xmlns="http://www.w3.org/2000/svg"><g filter="url(#a)"><path d="M41 7a4 4 0 0 1 4 4v12.889C45 35.549 35.548 45 23.889 45H11a4 4 0 0 1-4-4V11a4 4 0 0 1 4-4h30Z" stroke="#fff" stroke-width="2" stroke-linecap="round" stroke-linejoin="round"/><path d="M19 45c5.778 0 8.667-2.889 8.667-8.667v-8.666h8.666C42.111 27.667 45 24.777 45 19" stroke="#fff" stroke-width="2" stroke-linecap="round" stroke-linejoin="round"/><path d="m17 11 1.347 4.146h4.36l-3.527 2.562 1.347 4.146L17 19.292l-3.527 2.562 1.347-4.146-3.526-2.562h4.359L17 11Z" fill="black"/></g><defs><filter id="a" x="0" y="0" width="52" height="52" filterUnits="userSpaceOnUse" color-interpolation-filters="sRGB"><feFlood flood-opacity="0" result="BackgroundImageFix"/><feColorMatrix in="SourceAlpha" values="0 0 0 0 0 0 0 0 0 0 0 0 0 0 0 0 0 0 127 0" result="hardAlpha"/><feOffset/><feGaussianBlur stdDeviation="3"/><feComposite in2="hardAlpha" operator="out"/><feColorMatrix values="0 0 0 0 0 0 0 0 0 0 0 0 0 0 0 0 0 0 0.6 0"/><feBlend in2="BackgroundImageFix" result="effect1_dropShadow_0_342"/><feBlend in="SourceGraphic" in2="effect1_dropShadow_0_342" result="shape"/></filter></defs></svg>