<svg xmlns="http://www.w3.org/2000/svg" width="1080" height="1080" xml:space="preserve"><rect style="stroke:#000;stroke-width:1;stroke-dasharray:none;stroke-linecap:butt;stroke-dashoffset:0;stroke-linejoin:miter;stroke-miterlimit:4;fill:#fff;fill-rule:nonzero;opacity:.97" vector-effect="non-scaling-stroke" x="-20" y="-20" rx="4.018" ry="4.018" width="40" height="40" transform="translate(540.5 540.5)"/><path style="stroke:none;stroke-width:1;stroke-dasharray:none;stroke-linecap:butt;stroke-dashoffset:0;stroke-linejoin:miter;stroke-miterlimit:4;fill:#000;fill-rule:nonzero;opacity:1" vector-effect="non-scaling-stroke" transform="translate(513.52 512.89)" d="M24.554 35.5h3.26l-6.038-16.986h-3.413L12.335 35.5h3.072l1.46-4.39h6.25l1.436 4.39Zm-4.65-13.796h.2l2.308 7.063h-4.838l2.33-7.063Zm13.902 14.008c1.683 0 3.096-.73 3.814-1.978h.2V35.5h2.813v-8.793c0-2.72-1.86-4.32-5.167-4.32-3.06 0-5.191 1.436-5.427 3.684h2.755c.27-.883 1.189-1.365 2.53-1.365 1.578 0 2.425.718 2.425 2.001v1.107l-3.319.2c-3.131.176-4.885 1.53-4.885 3.837 0 2.354 1.777 3.86 4.261 3.86Zm.86-2.248c-1.295 0-2.225-.648-2.225-1.754 0-1.071.765-1.672 2.401-1.778l2.907-.2v1.048c0 1.53-1.318 2.684-3.084 2.684Z"/></svg>