<svg width="54" height="54" viewBox="0 0 54 54" fill="currentColor" xmlns="http://www.w3.org/2000/svg">
<g filter="url(#filter0_d_0_339)">
<path d="M24.5541 35.5H27.8147L21.7761 18.5144H18.3625L12.3357 35.5H15.408L16.8676 31.1094H23.118L24.5541 35.5ZM19.9045 21.7043H20.1046L22.4118 28.767H17.5739L19.9045 21.7043ZM33.8062 35.7119C35.4894 35.7119 36.902 34.9821 37.62 33.7343H37.8201V35.5H40.6334V26.707C40.6334 23.9879 38.7736 22.387 35.4659 22.387C32.4054 22.387 30.2748 23.8231 30.0394 26.0714H32.7939C33.0646 25.1885 33.9827 24.7059 35.3246 24.7059C36.902 24.7059 37.7495 25.424 37.7495 26.707V27.8135L34.43 28.0136C31.2989 28.1902 29.545 29.5438 29.545 31.851C29.545 34.2052 31.3225 35.7119 33.8062 35.7119ZM34.6655 33.4636C33.3706 33.4636 32.4407 32.8162 32.4407 31.7097C32.4407 30.6386 33.2058 30.0382 34.842 29.9323L37.7495 29.7322V30.7798C37.7495 32.31 36.4311 33.4636 34.6655 33.4636Z" fill="white"/>
<rect x="7" y="7" width="40" height="40" rx="4.01786" stroke="white" stroke-width="1.60714"/>
</g>
<defs>
<filter id="filter0_d_0_339" x="0.196411" y="0.196442" width="53.6072" height="53.6071" filterUnits="userSpaceOnUse" color-interpolation-filters="sRGB">
<feFlood flood-opacity="0" result="BackgroundImageFix"/>
<feColorMatrix in="SourceAlpha" type="matrix" values="0 0 0 0 0 0 0 0 0 0 0 0 0 0 0 0 0 0 127 0" result="hardAlpha"/>
<feOffset/>
<feGaussianBlur stdDeviation="3"/>
<feComposite in2="hardAlpha" operator="out"/>
<feColorMatrix type="matrix" values="0 0 0 0 0 0 0 0 0 0 0 0 0 0 0 0 0 0 0.6 0"/>
<feBlend mode="normal" in2="BackgroundImageFix" result="effect1_dropShadow_0_339"/>
<feBlend mode="normal" in="SourceGraphic" in2="effect1_dropShadow_0_339" result="shape"/>
</filter>
</defs>
</svg>
