<?xml version="1.0" encoding="utf-8"?>
<!-- Generator: Adobe Illustrator 27.0.0, SVG Export Plug-In . SVG Version: 6.00 Build 0)  -->
<svg version="1.1" id="Layer_1" xmlns="http://www.w3.org/2000/svg" xmlns:xlink="http://www.w3.org/1999/xlink" x="0px" y="0px"
	 viewBox="0 0 54 54" style="enable-background:new 0 0 54 54;" xml:space="preserve">
<style type="text/css">
	.st0{fill:#FFFFFF;}
</style>
<path class="st0" d="M24.6,35.5h3.3l-6-17h-3.4l-6,17h3.1l1.5-4.4h6.3L24.6,35.5z M19.9,21.7h0.2l2.3,7.1h-4.8L19.9,21.7z
	 M33.8,35.7c1.7,0,3.1-0.7,3.8-2h0.2v1.8h2.8v-8.8c0-2.7-1.9-4.3-5.2-4.3c-3.1,0-5.2,1.4-5.4,3.7h2.8c0.3-0.9,1.2-1.4,2.5-1.4
	c1.6,0,2.4,0.7,2.4,2v1.1L34.4,28c-3.1,0.2-4.9,1.5-4.9,3.8C29.5,34.2,31.3,35.7,33.8,35.7z M34.7,33.5c-1.3,0-2.2-0.6-2.2-1.8
	c0-1.1,0.8-1.7,2.4-1.8l2.9-0.2v1C37.7,32.3,36.4,33.5,34.7,33.5z"/>
<g>
	<path class="st0" d="M43,47.8H11c-2.7,0-4.8-2.2-4.8-4.8V11c0-2.7,2.2-4.8,4.8-4.8h32c2.7,0,4.8,2.2,4.8,4.8v32
		C47.8,45.6,45.6,47.8,43,47.8z M11,7.8c-1.8,0-3.2,1.4-3.2,3.2v32c0,1.8,1.4,3.2,3.2,3.2h32c1.8,0,3.2-1.4,3.2-3.2V11
		c0-1.8-1.4-3.2-3.2-3.2H11z"/>
</g>
</svg>
